<svg display="none" xmlns="http://www.w3.org/2000/svg">
    <symbol id="github" viewBox="0 0 24 24">
        <path d="m12 .5c-6.63 0-12 5.28-12 11.792 0 5.211 3.438 9.63 8.205 11.188.6.111.82-.254.82-.567 0-.28-.01-1.022-.015-2.005-3.338.711-4.042-1.582-4.042-1.582-.546-1.361-1.335-1.725-1.335-1.725-1.087-.731.084-.716.084-.716 1.205.082 1.838 1.215 1.838 1.215 1.07 1.803 2.809 1.282 3.495.981.108-.763.417-1.282.76-1.577-2.665-.295-5.466-1.309-5.466-5.827 0-1.287.465-2.339 1.235-3.164-.135-.298-.54-1.497.105-3.121 0 0 1.005-.316 3.3 1.209.96-.262 1.98-.392 3-.398 1.02.006 2.04.136 3 .398 2.28-1.525 3.285-1.209 3.285-1.209.645 1.624.24 2.823.12 3.121.765.825 1.23 1.877 1.23 3.164 0 4.53-2.805 5.527-5.475 5.817.42.354.81 1.077.81 2.182 0 1.578-.015 2.846-.015 3.229 0 .309.21.678.825.56 4.801-1.548 8.236-5.97 8.236-11.173 0-6.512-5.373-11.792-12-11.792z"/>
    </symbol>
    <symbol id="telegram" viewBox="0 0 24 24">
        <path d="m9.417 15.181-.397 5.584c.568 0 .814-.244 1.109-.537l2.663-2.545 5.518 4.041c1.012.564 1.725.267 1.998-.931l3.622-16.972.001-.001c.321-1.496-.541-2.081-1.527-1.714l-21.29 8.151c-1.453.564-1.431 1.374-.247 1.741l5.443 1.693 12.643-7.911c.595-.394 1.136-.176.691.218z"/>
    </symbol>
    <symbol id="email" viewBox="0 0 512 512">
        <g>
            <g>
                <polygon points="339.392,258.624 512,367.744 512,144.896 		"/>
            </g>
        </g>
        <g>
            <g>
                <polygon points="0,144.896 0,367.744 172.608,258.624 		"/>
            </g>
        </g>
        <g>
            <g>
                <path d="M480,80H32C16.032,80,3.36,91.904,0.96,107.232L256,275.264l255.04-168.032C508.64,91.904,495.968,80,480,80z"/>
            </g>
        </g>
        <g>
            <g>
                <path d="M310.08,277.952l-45.28,29.824c-2.688,1.76-5.728,2.624-8.8,2.624c-3.072,0-6.112-0.864-8.8-2.624l-45.28-29.856
			L1.024,404.992C3.488,420.192,16.096,432,32,432h448c15.904,0,28.512-11.808,30.976-27.008L310.08,277.952z"/>
            </g>
        </g>
        <g>
        </g>
        <g>
        </g>
        <g>
        </g>
        <g>
        </g>
        <g>
        </g>
        <g>
        </g>
        <g>
        </g>
        <g>
        </g>
        <g>
        </g>
        <g>
        </g>
        <g>
        </g>
        <g>
        </g>
        <g>
        </g>
        <g>
        </g>
        <g>
        </g>
    </symbol>
    <symbol id="phone" viewBox="0 0 512 512">
        <g>
            <g>
                <path d="M436.992,74.953c-99.989-99.959-262.08-99.935-362.039,0.055s-99.935,262.08,0.055,362.039s262.08,99.935,362.039-0.055
			c48.006-48.021,74.968-113.146,74.953-181.047C511.986,188.055,485.005,122.951,436.992,74.953z M387.703,356.605
			c-0.011,0.011-0.022,0.023-0.034,0.034v-0.085l-12.971,12.885c-16.775,16.987-41.206,23.976-64.427,18.432
			c-23.395-6.262-45.635-16.23-65.877-29.525c-18.806-12.019-36.234-26.069-51.968-41.899
			c-14.477-14.371-27.483-30.151-38.827-47.104c-12.408-18.242-22.229-38.114-29.184-59.051
			c-7.973-24.596-1.366-51.585,17.067-69.717l15.189-15.189c4.223-4.242,11.085-4.257,15.326-0.034
			c0.011,0.011,0.023,0.022,0.034,0.034l47.957,47.957c4.242,4.223,4.257,11.085,0.034,15.326c-0.011,0.011-0.022,0.022-0.034,0.034
			l-28.16,28.16c-8.08,7.992-9.096,20.692-2.389,29.867c10.185,13.978,21.456,27.131,33.707,39.339
			c13.659,13.718,28.508,26.197,44.373,37.291c9.167,6.394,21.595,5.316,29.525-2.56l27.221-27.648
			c4.223-4.242,11.085-4.257,15.326-0.034c0.011,0.011,0.022,0.022,0.034,0.034l48.043,48.128
			C391.911,345.502,391.926,352.363,387.703,356.605z"/>
            </g>
        </g>
        <g>
        </g>
        <g>
        </g>
        <g>
        </g>
        <g>
        </g>
        <g>
        </g>
        <g>
        </g>
        <g>
        </g>
        <g>
        </g>
        <g>
        </g>
        <g>
        </g>
        <g>
        </g>
        <g>
        </g>
        <g>
        </g>
        <g>
        </g>
        <g>
        </g>
    </symbol>
</svg>
